<svg width="134" height="100" viewBox="0 0 134 100" fill="none" xmlns="http://www.w3.org/2000/svg">
<circle cx="67.1312" cy="45.762" r="45.762" fill="#E8EDF8"/>
<g filter="url(#filter0_dddd)">
<path d="M18.2814 49.6915C16.8773 32.8466 32.3184 28.3546 41.8639 30.0391C42.4254 22.9268 48.0487 7.32231 68.535 6.73697C88.1874 6.17545 98.857 24.892 99.4185 33.6888C104.753 33.6888 114.859 38.1808 115.42 47.1648C116.261 60.6145 108.121 67.4315 99.9789 67.3787C85.5671 67.2851 48.0696 67.9963 42.2301 68.2209C34.9306 68.5017 19.5716 65.1707 18.2814 49.6915Z" fill="white"/>
</g>
<circle cx="115.701" cy="26.952" r="3.93048" fill="#E8EDF8"/>
<circle cx="21.9305" cy="70.7488" r="3.93048" fill="#E8EDF8"/>
<circle cx="120.473" cy="14.3178" r="2.52674" fill="#E8EDF8"/>
<circle cx="21.0883" cy="21.6166" r="2.52674" fill="#E8EDF8"/>
<circle cx="67.9734" cy="33.1287" r="26.3904" fill="url(#paint0_linear)"/>
<circle cx="35.1257" cy="47.446" r="17.1257" fill="url(#paint1_linear)"/>
<circle cx="100.54" cy="49.4114" r="15.7219" fill="url(#paint2_linear)"/>
<circle cx="67.4121" cy="66.2569" r="20.2139" fill="#8B92A0"/>
<path d="M67.6924 59.5176V72.7128" stroke="white" stroke-width="3.36898" stroke-linecap="round" stroke-linejoin="bevel"/>
<path d="M61.7969 65.1326L67.6926 59.5176L73.0268 65.1326" stroke="white" stroke-width="3.36898" stroke-linecap="round" stroke-linejoin="bevel"/>
<defs>
<filter id="filter0_dddd" x="0.22398" y="2.23263" width="133.224" height="97.4481" filterUnits="userSpaceOnUse" color-interpolation-filters="sRGB">
<feFlood flood-opacity="0" result="BackgroundImageFix"/>
<feColorMatrix in="SourceAlpha" type="matrix" values="0 0 0 0 0 0 0 0 0 0 0 0 0 0 0 0 0 0 127 0"/>
<feOffset/>
<feGaussianBlur stdDeviation="0.280749"/>
<feColorMatrix type="matrix" values="0 0 0 0 0 0 0 0 0 0 0 0 0 0 0 0 0 0 0.04 0"/>
<feBlend mode="normal" in2="BackgroundImageFix" result="effect1_dropShadow"/>
<feColorMatrix in="SourceAlpha" type="matrix" values="0 0 0 0 0 0 0 0 0 0 0 0 0 0 0 0 0 0 127 0"/>
<feOffset dy="2.24599"/>
<feGaussianBlur stdDeviation="2.24599"/>
<feColorMatrix type="matrix" values="0 0 0 0 0 0 0 0 0 0 0 0 0 0 0 0 0 0 0.04 0"/>
<feBlend mode="normal" in2="effect1_dropShadow" result="effect2_dropShadow"/>
<feColorMatrix in="SourceAlpha" type="matrix" values="0 0 0 0 0 0 0 0 0 0 0 0 0 0 0 0 0 0 127 0"/>
<feOffset dy="8.98396"/>
<feGaussianBlur stdDeviation="6.73797"/>
<feColorMatrix type="matrix" values="0 0 0 0 0 0 0 0 0 0 0 0 0 0 0 0 0 0 0.04 0"/>
<feBlend mode="normal" in2="effect2_dropShadow" result="effect3_dropShadow"/>
<feColorMatrix in="SourceAlpha" type="matrix" values="0 0 0 0 0 0 0 0 0 0 0 0 0 0 0 0 0 0 127 0"/>
<feOffset dy="13.4759"/>
<feGaussianBlur stdDeviation="8.98396"/>
<feColorMatrix type="matrix" values="0 0 0 0 0 0 0 0 0 0 0 0 0 0 0 0 0 0 0.04 0"/>
<feBlend mode="normal" in2="effect3_dropShadow" result="effect4_dropShadow"/>
<feBlend mode="normal" in="SourceGraphic" in2="effect4_dropShadow" result="shape"/>
</filter>
<linearGradient id="paint0_linear" x1="35.1258" y1="26.6714" x2="60.9547" y2="34.2517" gradientUnits="userSpaceOnUse">
<stop stop-color="#DFE4EE"/>
<stop offset="0.965575" stop-color="white" stop-opacity="0"/>
</linearGradient>
<linearGradient id="paint1_linear" x1="13.1965" y1="37.4212" x2="37.6319" y2="48.6991" gradientUnits="userSpaceOnUse">
<stop stop-color="#DFE4EE"/>
<stop offset="0.965575" stop-color="white" stop-opacity="0"/>
</linearGradient>
<linearGradient id="paint2_linear" x1="82.2916" y1="41.2697" x2="95.4868" y2="46.6039" gradientUnits="userSpaceOnUse">
<stop stop-color="#DFE4EE"/>
<stop offset="0.965575" stop-color="white" stop-opacity="0"/>
</linearGradient>
</defs>
</svg>
